<svg xmlns="http://www.w3.org/2000/svg" id="Layer_1" data-name="Layer 1" viewBox="0 0 540 60"><defs><style>      .cls-1 {        fill: #65d1a6;      }      .cls-1, .cls-2 {        stroke-width: 0px;      }      .cls-2 {        fill: #fff;      }    </style></defs><g><path class="cls-2" d="M11,38.2c0,7,4.6,11,10,11s8.1-3.6,8.9-6.6l9.3,3.1c-1.7,6.5-7.8,13.1-18.2,13.1S.5,50.1.5,38.1s8.9-20.7,20.2-20.7,16.6,6.6,18.3,13.1l-9.4,3.2c-1-3.2-3.4-6.6-8.6-6.6-5.5.2-10,4.1-10,11.1Z"></path><path class="cls-2" d="M81.3,38.2c0,12-8.8,20.7-20.4,20.7s-20.4-8.7-20.4-20.7,8.8-20.7,20.4-20.7c11.6,0,20.4,8.7,20.4,20.7ZM70.7,38.2c0-7.4-4.7-11.1-9.9-11.1s-9.8,3.8-9.8,11.1,4.7,11.1,9.9,11.1,9.8-3.7,9.8-11.1Z"></path><path class="cls-2" d="M255.4,38.2c0,12-8.8,20.7-20.4,20.7s-20.4-8.7-20.4-20.7,8.8-20.7,20.4-20.7c11.6,0,20.4,8.7,20.4,20.7ZM244.9,38.2c0-7.4-4.7-11.1-9.9-11.1s-9.9,3.7-9.9,11.1,4.7,11.1,9.9,11.1,9.9-3.7,9.9-11.1Z"></path><path class="cls-2" d="M271.1,57.7h-10.5V18.7h10.2v4.8c2.4-4,7-5.9,11.2-5.9,9.7,0,14.1,6.9,14.1,15.4v24.5h-10.5v-22.5c0-4.4-2.1-7.8-7.2-7.8s-7.3,3.6-7.3,8.1v22.4h0Z"></path></g><g><g><path class="cls-1" d="M352.2,18.7l8.4,25.1,7.2-25.1h10.4l-12.2,38.9h-10.5l-9.1-26.6-8.9,26.6h-10.7l-12.4-38.9h11.1l7.2,25,8.5-25s11,0,11,0Z"></path><path class="cls-1" d="M415.5,46.5c-2,6.7-8.2,12.3-17.7,12.3s-20.1-7.7-20.1-20.8,9.2-20.5,19.2-20.5,19.2,7.7,19.2,20.2-.2,3.1-.2,3.2h-27.9c.2,5.1,4.6,8.9,9.8,8.9s7.6-2.5,8.9-5.9l8.8,2.6ZM405.7,33.8c-.2-3.9-2.7-7.7-8.7-7.7s-8.5,4.1-8.7,7.7h17.4Z"></path><path class="cls-1" d="M430.5,35.3l9.6-1.4c2.2-.3,2.9-1.4,2.9-2.8,0-2.8-2.1-5.1-6.6-5.1s-7.1,2.9-7.4,6.3l-9.3-2c.6-6.1,6.3-12.8,16.7-12.8s16.9,7,16.9,14.8v19.2c0,2.1.2,4.8.5,6.2h-9.7c-.2-1-.4-3.2-.4-4.7-2,3.1-5.7,5.8-11.5,5.8-8.3,0-13.4-5.6-13.4-11.7,0-7,5.2-10.9,11.7-11.8ZM443,41.9v-1.7l-8.8,1.3c-2.7.4-4.8,1.9-4.8,4.9s1.7,4.5,5.1,4.5c4.4.1,8.5-2.1,8.5-9Z"></path><path class="cls-1" d="M460.7,57.7V.4h10.5v57.3s-10.5,0-10.5,0Z"></path><path class="cls-1" d="M492.3,18.7h7.8v9.3h-7.8v16.3c0,3.4,1.6,4.5,4.6,4.5s2.7-.2,3.2-.3v8.8c-1,.4-2.8.9-5.9.9-7.6,0-12.3-4.5-12.3-12v-18.1h-7v-9.3h2c4.1,0,6-2.7,6-6.2v-5.5h9.5v11.6h-.1Z"></path><path class="cls-1" d="M514.5,57.7h-10.5V.4h10.5v21.6c2.5-3,6.8-4.3,10.5-4.3,9.9,0,14.5,6.9,14.5,15.4v24.5h-10.5v-22.6c0-4.4-2.1-7.8-7.2-7.8s-7,3.3-7.3,7.6v22.9Z"></path></g><path class="cls-1" d="M84.9,59.5c8,0,10.3-10.2,12.8-20.9.7-3.2,1.8-7.9,2.9-10.9,1.1,3,2.2,7.7,2.9,10.9,2.5,10.8,4.8,20.9,12.8,20.9s10.3-10.2,12.8-20.9c.7-3.2,1.8-7.9,2.9-10.9,1.1,3,2.2,7.7,2.9,10.9,2.5,10.8,4.8,20.9,12.8,20.9s10.3-10.2,12.8-20.9c.7-3.2,1.8-7.9,2.9-10.9,1.1,3,2.2,7.7,2.9,10.9,2.5,10.8,4.8,20.9,12.8,20.9s10.3-10.2,12.8-20.9c.7-3.2,1.8-7.9,2.9-10.9,1.1,3,2.2,7.7,2.9,10.9,2.5,10.8,4.8,20.9,12.8,20.9h1.3v-9.7c-1.5-1.4-3.2-9-4.3-13.5-2.5-10.8-4.8-20.9-12.8-20.9s-10.3,10.2-12.8,20.9c-.7,3.2-1.8,7.9-2.9,10.9-1.1-3-2.2-7.7-2.9-10.9-2.5-10.8-4.8-20.9-12.8-20.9s-10.3,10.2-12.8,20.9c-.7,3.2-1.8,7.9-2.9,10.9-1.1-3-2.2-7.7-2.9-10.9-2.5-10.8-4.8-20.9-12.8-20.9s-10.3,10.2-12.8,20.9c-.7,3.2-1.8,7.9-2.9,10.9-1.1-3-2.2-7.7-2.9-10.9-2.5-10.8-4.8-20.9-12.8-20.9s-10.2,10.1-12.7,20.9c-1,4.5-2.8,12.1-4.3,13.5v9.7h1.4Z"></path></g></svg>