<svg width="541" height="112" viewBox="0 0 541 112" fill="none" xmlns="http://www.w3.org/2000/svg">
<path d="M23.8314 35.2535L11.8666 23.5187C7.45054 19.1876 0 22.3162 0 28.5016L0 101.118C0 104.973 3.12481 108.097 6.97947 108.097H80.3743C86.6599 108.097 89.7424 100.44 85.2099 96.085L74.3134 85.6158C73.0134 84.3668 71.2805 83.6692 69.4778 83.6692H32.9032C29.0486 83.6692 25.9237 80.5444 25.9237 76.6898L25.9237 40.2364C25.9237 38.3618 25.1697 36.566 23.8314 35.2535Z" fill="white"/>
<path d="M77.8708 79.7391L89.8356 91.4738C94.2516 95.8049 101.702 92.6763 101.702 86.4909V13.8746C101.702 10.02 98.5773 6.89516 94.7227 6.89516H21.3278C15.0423 6.89516 11.9597 14.5528 16.4923 18.9076L27.3888 29.3768C28.6888 30.6258 30.4216 31.3233 32.2243 31.3233H68.7989C72.6536 31.3233 75.7784 34.4481 75.7784 38.3028V74.7562C75.7784 76.6307 76.5325 78.4265 77.8708 79.7391Z" fill="white"/>
<path d="M152.303 84V26.4745H172.55C175.281 26.4745 177.825 26.9298 180.182 27.8404C182.592 28.6974 184.681 29.9293 186.449 31.5361C188.216 33.143 189.609 35.0712 190.627 37.3208C191.644 39.5169 192.153 41.9539 192.153 44.632C192.153 47.3637 191.644 49.8543 190.627 52.1039C189.609 54.2999 188.216 56.2014 186.449 57.8083C184.681 59.4151 182.592 60.6738 180.182 61.5844C177.825 62.4414 175.281 62.8699 172.55 62.8699H163.15V84H152.303ZM172.71 52.586C175.549 52.586 177.692 51.7825 179.138 50.1757C180.584 48.5688 181.307 46.7209 181.307 44.632C181.307 43.6144 181.12 42.6235 180.745 41.6593C180.423 40.6952 179.888 39.865 179.138 39.1687C178.441 38.4188 177.558 37.8297 176.486 37.4012C175.415 36.9727 174.156 36.7584 172.71 36.7584H163.15V52.586H172.71ZM200.171 44.632H210.053V50.0953L210.696 50.0953C211.178 49.1312 211.821 48.2475 212.624 47.444C213.428 46.6406 214.312 45.9443 215.276 45.3551C216.293 44.7659 217.365 44.3107 218.489 43.9893C219.668 43.6679 220.819 43.5072 221.944 43.5072C223.337 43.5072 224.515 43.6411 225.479 43.9089C226.497 44.1768 227.354 44.5249 228.05 44.9534L225.238 54.5142C224.595 54.1928 223.872 53.9518 223.069 53.7911C222.319 53.5769 221.382 53.4697 220.257 53.4697C218.811 53.4697 217.499 53.7643 216.32 54.3535C215.142 54.8891 214.124 55.6658 213.267 56.6835C212.464 57.7011 211.821 58.9063 211.339 60.2989C210.91 61.6379 210.696 63.1109 210.696 64.7177V84H200.171V44.632ZM240.361 38.9277C239.45 38.9277 238.567 38.767 237.71 38.4456C236.906 38.0707 236.183 37.5886 235.54 36.9995C234.951 36.3567 234.469 35.6336 234.094 34.8302C233.773 34.0268 233.612 33.143 233.612 32.1789C233.612 31.2148 233.773 30.331 234.094 29.5276C234.469 28.7241 234.951 28.0278 235.54 27.4387C236.183 26.7959 236.906 26.3139 237.71 25.9925C238.567 25.6176 239.45 25.4301 240.361 25.4301C242.236 25.4301 243.842 26.0996 245.181 27.4387C246.52 28.7241 247.19 30.3042 247.19 32.1789C247.19 34.0536 246.52 35.6604 245.181 36.9995C243.842 38.2849 242.236 38.9277 240.361 38.9277ZM235.139 84V44.632H245.663V84H235.139ZM293.862 73.9572C292.148 77.278 289.737 80.0097 286.631 82.1521C283.578 84.241 279.748 85.2855 275.142 85.2855C272.089 85.2855 269.277 84.7767 266.706 83.759C264.188 82.6877 261.992 81.2148 260.118 79.3401C258.297 77.4655 256.85 75.2694 255.779 72.752C254.761 70.181 254.253 67.369 254.253 64.316C254.253 61.263 254.761 58.451 255.779 55.88C256.85 53.3091 258.297 51.113 260.118 49.2919C261.992 47.4172 264.188 45.9711 266.706 44.9534C269.277 43.8822 272.089 43.3465 275.142 43.3465C279.695 43.3465 283.524 44.391 286.631 46.4799C289.737 48.5688 292.014 51.2737 293.46 54.5945L283.819 58.6117C282.908 56.7906 281.73 55.4247 280.284 54.5142C278.891 53.5501 277.124 53.068 274.981 53.068C273.588 53.068 272.276 53.3358 271.044 53.8715C269.812 54.4071 268.714 55.1569 267.75 56.1211C266.84 57.0852 266.117 58.2635 265.581 59.6561C265.045 61.0487 264.778 62.602 264.778 64.316C264.778 66.03 265.045 67.5833 265.581 68.9759C266.117 70.3685 266.84 71.5469 267.75 72.511C268.714 73.4751 269.812 74.225 271.044 74.7606C272.276 75.2962 273.588 75.564 274.981 75.564C277.177 75.564 279.025 75.082 280.525 74.1178C282.078 73.1002 283.31 71.654 284.221 69.7793L293.862 73.9572ZM338.776 74.5196C336.955 77.7333 334.491 80.331 331.385 82.3128C328.332 84.2946 324.583 85.2855 320.137 85.2855C317.137 85.2855 314.352 84.7767 311.781 83.759C309.264 82.6877 307.068 81.2148 305.193 79.3401C303.318 77.4655 301.846 75.2694 300.774 72.752C299.757 70.181 299.248 67.369 299.248 64.316C299.248 61.4772 299.757 58.7991 300.774 56.2817C301.792 53.7108 303.211 51.488 305.032 49.6133C306.854 47.6851 308.996 46.1585 311.46 45.0337C313.977 43.9089 316.736 43.3465 319.735 43.3465C322.895 43.3465 325.707 43.8822 328.171 44.9534C330.635 45.9711 332.697 47.4172 334.358 49.2919C336.018 51.113 337.277 53.2823 338.134 55.7997C338.991 58.3171 339.419 61.0487 339.419 63.9947C339.419 64.3696 339.419 64.691 339.419 64.9588C339.366 65.2801 339.339 65.5747 339.339 65.8425C339.285 66.1103 339.258 66.4049 339.258 66.7263H309.612C309.826 68.3332 310.255 69.7258 310.897 70.9041C311.594 72.0289 312.424 72.993 313.388 73.7965C314.406 74.5463 315.504 75.1087 316.682 75.4837C317.861 75.805 319.066 75.9657 320.298 75.9657C322.708 75.9657 324.69 75.4301 326.243 74.3589C327.85 73.2341 329.109 71.8415 330.019 70.181L338.776 74.5196ZM329.216 59.2544C329.162 58.5581 328.921 57.7815 328.493 56.9245C328.118 56.0675 327.528 55.2641 326.725 54.5142C325.975 53.7643 325.011 53.1484 323.833 52.6663C322.708 52.1843 321.342 51.9432 319.735 51.9432C317.486 51.9432 315.504 52.586 313.79 53.8715C312.076 55.1569 310.871 56.9513 310.174 59.2544H329.216ZM347.426 44.632H357.309V49.3723H357.951C358.915 47.7118 360.415 46.2924 362.451 45.1141C364.486 43.9357 367.003 43.3465 370.003 43.3465C372.52 43.3465 374.904 43.8822 377.153 44.9534C379.456 45.9711 381.465 47.4172 383.179 49.2919C384.947 51.113 386.339 53.3091 387.357 55.88C388.375 58.451 388.883 61.263 388.883 64.316C388.883 67.369 388.375 70.181 387.357 72.752C386.339 75.323 384.947 77.5458 383.179 79.4205C381.465 81.2416 379.456 82.6877 377.153 83.759C374.904 84.7767 372.52 85.2855 370.003 85.2855C367.003 85.2855 364.486 84.6963 362.451 83.518C360.415 82.3396 358.915 80.9202 357.951 79.2598H357.309L357.951 84.8838V101.354H347.426V44.632ZM367.834 75.564C369.226 75.564 370.538 75.2962 371.77 74.7606C373.056 74.225 374.181 73.4751 375.145 72.511C376.109 71.5469 376.886 70.3685 377.475 68.9759C378.064 67.5833 378.358 66.03 378.358 64.316C378.358 62.602 378.064 61.0487 377.475 59.6561C376.886 58.2635 376.109 57.0852 375.145 56.1211C374.181 55.1569 373.056 54.4071 371.77 53.8715C370.538 53.3358 369.226 53.068 367.834 53.068C366.441 53.068 365.102 53.3358 363.816 53.8715C362.584 54.3535 361.486 55.0766 360.522 56.0407C359.558 57.0048 358.782 58.1832 358.192 59.5758C357.603 60.9684 357.309 62.5485 357.309 64.316C357.309 66.0836 357.603 67.6636 358.192 69.0562C358.782 70.4489 359.558 71.6272 360.522 72.5913C361.486 73.5554 362.584 74.3053 363.816 74.8409C365.102 75.323 366.441 75.564 367.834 75.564ZM415.855 43.3465C418.908 43.3465 421.693 43.8822 424.21 44.9534C426.781 45.9711 428.977 47.4172 430.798 49.2919C432.673 51.113 434.119 53.3091 435.137 55.88C436.208 58.451 436.744 61.263 436.744 64.316C436.744 67.369 436.208 70.181 435.137 72.752C434.119 75.323 432.673 77.5458 430.798 79.4205C428.977 81.2416 426.781 82.6877 424.21 83.759C421.693 84.7767 418.908 85.2855 415.855 85.2855C412.802 85.2855 409.99 84.7767 407.419 83.759C404.901 82.6877 402.705 81.2416 400.831 79.4205C399.009 77.5458 397.563 75.323 396.492 72.752C395.474 70.181 394.966 67.369 394.966 64.316C394.966 61.263 395.474 58.451 396.492 55.88C397.563 53.3091 399.009 51.113 400.831 49.2919C402.705 47.4172 404.901 45.9711 407.419 44.9534C409.99 43.8822 412.802 43.3465 415.855 43.3465ZM415.855 75.564C417.194 75.564 418.479 75.323 419.711 74.8409C420.997 74.3053 422.121 73.5554 423.086 72.5913C424.05 71.6272 424.8 70.4489 425.335 69.0562C425.924 67.6636 426.219 66.0836 426.219 64.316C426.219 62.5485 425.924 60.9684 425.335 59.5758C424.8 58.1832 424.05 57.0048 423.086 56.0407C422.121 55.0766 420.997 54.3535 419.711 53.8715C418.479 53.3358 417.194 53.068 415.855 53.068C414.462 53.068 413.15 53.3358 411.918 53.8715C410.686 54.3535 409.588 55.0766 408.624 56.0407C407.66 57.0048 406.883 58.1832 406.294 59.5758C405.758 60.9684 405.49 62.5485 405.49 64.316C405.49 66.0836 405.758 67.6636 406.294 69.0562C406.883 70.4489 407.66 71.6272 408.624 72.5913C409.588 73.5554 410.686 74.3053 411.918 74.8409C413.15 75.323 414.462 75.564 415.855 75.564ZM450.194 38.9277C449.283 38.9277 448.399 38.767 447.542 38.4456C446.739 38.0707 446.016 37.5886 445.373 36.9995C444.784 36.3567 444.302 35.6336 443.927 34.8302C443.606 34.0268 443.445 33.143 443.445 32.1789C443.445 31.2148 443.606 30.331 443.927 29.5276C444.302 28.7241 444.784 28.0278 445.373 27.4387C446.016 26.7959 446.739 26.3139 447.542 25.9925C448.399 25.6176 449.283 25.4301 450.194 25.4301C452.068 25.4301 453.675 26.0996 455.014 27.4387C456.353 28.7241 457.023 30.3042 457.023 32.1789C457.023 34.0536 456.353 35.6604 455.014 36.9995C453.675 38.2849 452.068 38.9277 450.194 38.9277ZM444.971 84V44.632H455.496V84H444.971ZM476.61 49.774H477.252C478.484 47.7922 480.145 46.2389 482.234 45.1141C484.322 43.9357 486.706 43.3465 489.384 43.3465C491.848 43.3465 494.017 43.7483 495.892 44.5517C497.767 45.3551 499.293 46.5067 500.471 48.0064C501.703 49.4526 502.614 51.2201 503.203 53.3091C503.846 55.3444 504.167 57.6208 504.167 60.1382V84H493.642V61.4237C493.642 58.5849 493 56.496 491.714 55.1569C490.482 53.7643 488.661 53.068 486.251 53.068C484.805 53.068 483.519 53.3894 482.394 54.0321C481.323 54.6213 480.386 55.4515 479.582 56.5228C478.832 57.5404 478.243 58.7724 477.815 60.2185C477.44 61.6111 477.252 63.1109 477.252 64.7177V84H466.727V44.632H476.61V49.774ZM516.767 53.6304H509.858V44.632H516.767V32.5806H527.292V44.632H536.933V53.6304H527.292V68.8956C527.292 69.8061 527.372 70.6631 527.533 71.4665C527.747 72.2164 528.122 72.8591 528.658 73.3948C529.408 74.2518 530.479 74.6802 531.872 74.6802C532.782 74.6802 533.505 74.5999 534.041 74.4392C534.577 74.225 535.085 73.9572 535.567 73.6358L538.54 82.8752C537.308 83.4644 535.969 83.8929 534.523 84.1607C533.13 84.4821 531.577 84.6428 529.863 84.6428C527.881 84.6428 526.087 84.3482 524.48 83.759C522.927 83.1162 521.615 82.2593 520.543 81.188C518.026 78.7777 516.767 75.3498 516.767 70.9041V53.6304Z" fill="white"/>
</svg>
