<svg width="20" height="20" viewBox="0 0 20 20" fill="none" xmlns="http://www.w3.org/2000/svg">
<g clip-path="url(#clip0_1414_73706)">
<mask id="mask0_1414_73706" style="mask-type:luminance" maskUnits="userSpaceOnUse" x="0" y="0" width="20" height="20">
<path d="M20 0H0V20H20V0Z" fill="white"/>
</mask>
<g mask="url(#mask0_1414_73706)">
<path d="M20 10C20 15.524 15.524 20 10 20C4.476 20 0 15.524 0 10C0 4.476 4.476 0 10 0C15.524 0 20 4.48 20 10Z" fill="black"/>
<path d="M14.3296 8.36799H11.7456V8.24799C11.7456 7.80799 11.8336 7.44399 12.0096 7.15999C12.1856 6.87199 12.4896 6.61999 12.9296 6.39599L13.1296 6.29599C13.4856 6.11599 13.5776 5.95999 13.5776 5.77599C13.5776 5.55599 13.3856 5.39599 13.0776 5.39599C12.7096 5.39599 12.4336 5.58799 12.2416 5.97599L11.7456 5.47999C11.8536 5.24799 12.0296 5.06399 12.2616 4.91599C12.4976 4.76799 12.7576 4.69599 13.0416 4.69599C13.3976 4.69599 13.7056 4.78799 13.9576 4.97999C14.2176 5.17199 14.3456 5.43599 14.3456 5.76799C14.3456 6.29999 14.0456 6.62399 13.4856 6.91199L13.1696 7.07199C12.8336 7.23999 12.6696 7.39199 12.6216 7.65999H14.3296V8.36799ZM14.1016 9.18399H11.2736L9.86165 11.632H12.6896L14.1056 14.08L15.5176 11.632L14.1016 9.18399ZM10.1056 13.268C8.30565 13.268 6.84165 11.804 6.84165 10.004C6.84165 8.20399 8.30565 6.73999 10.1056 6.73999L11.2256 4.39999C10.8616 4.32799 10.4896 4.29199 10.1056 4.29199C6.94965 4.29199 4.38965 6.85199 4.38965 10.004C4.38965 13.16 6.94565 15.72 10.1056 15.72C11.3616 15.72 12.5256 15.312 13.4696 14.624L12.2296 12.48C11.6616 12.968 10.9176 13.268 10.1056 13.268Z" fill="white"/>
</g>
</g>
<defs>
<clipPath id="clip0_1414_73706">
<rect width="20" height="20" fill="white"/>
</clipPath>
</defs>
</svg>
