<svg fill="none" height="94" viewBox="0 0 484 94" width="484" xmlns="http://www.w3.org/2000/svg" xmlns:xlink="http://www.w3.org/1999/xlink"><linearGradient id="a" gradientUnits="userSpaceOnUse" x1="1.50977" x2="57.9397" y1="72.6372" y2="72.6372"><stop offset="0" stop-color="#ffcf56"/><stop offset="1" stop-color="#3f2400"/></linearGradient><linearGradient id="b" gradientUnits="userSpaceOnUse" x1="26.8834" x2="61.8394" y1="93.6883" y2="33.0461"><stop offset="0" stop-color="#008cc0"/><stop offset="1" stop-color="#e3f4fc"/></linearGradient><linearGradient id="c" gradientUnits="userSpaceOnUse" x1="31.9254" x2="55.1396" y1="32.2536" y2="62.0074"><stop offset="0" stop-color="#231f20"/><stop offset="1" stop-color="#134e62"/></linearGradient><linearGradient id="d" gradientUnits="userSpaceOnUse" x1="13.7782" x2="35.0264" y1="56.8711" y2="76.7091"><stop offset="0" stop-color="#1f4126"/><stop offset="1" stop-color="#73be44"/></linearGradient><linearGradient id="e" gradientUnits="userSpaceOnUse" x1="1.21796" x2="42.1756" y1="70.092" y2="-.966775"><stop offset="0" stop-color="#37b34a"/><stop offset="1" stop-color="#deecca"/></linearGradient><path clip-rule="evenodd" d="m91.1156 30.4676h-9.1156v-1.7269h20.181v1.7269h-9.1253v23.333h-1.9499zm15.1994-1.7561v10.6721c1.443-2.542 3.928-3.5024 6.414-3.5413 4.973 0 7.459 3.1921 7.459 7.8198v10.1385h-1.736v-10.1385c0-3.6576-1.725-6.1315-5.723-6.1315-3.753 0-6.336 2.862-6.336 6.5584v9.7116h-1.775v-25.0891zm16.573 16.241c0-5.307 4.027-9.1489 9.038-9.1489s9.476 3.0463 8.794 9.9735h-16.038c.361 4.1524 3.568 6.5584 7.244 6.5584 2.34 0 5.079-.9314 6.415-2.6873l1.267.9992c-1.735 2.2605-4.835 3.4053-7.682 3.4053-5.011 0-9.047-3.4732-9.047-9.1002zm16.242-.718c-.038-4.3756-2.924-6.8107-7.204-6.8107-3.676 0-6.844 2.4739-7.244 6.8107zm9.258-3.8162h14.526v1.8338h-14.526v11.3512h-1.95v-25.1278h16.964v1.9404h-15.014zm32.426 13.1558v-3.1919c-1.375 2.4448-3.861 3.4441-6.337 3.483-4.768 0-8.043-2.9105-8.043-7.8196v-10.2161h1.764v10.1869c0 4.0069 2.486 6.1607 6.337 6.1218 3.676-.029 6.24-2.7942 6.24-6.4516v-9.8571h1.755v17.7543zm9.534-23.0516v5.336h6.055v1.4748h-6.045v10.798c0 2.3965.497 4.0748 3.276 4.0748.868 0 1.833-.2813 2.73-.7082l.614 1.4359c-1.033.5441-2.176.8491-3.344.8925-3.783 0-5.011-2.2216-5.011-5.695v-10.8077h-3.783v-1.4554h3.783v-5.1615zm23.564 23.0516v-3.1919c-1.364 2.4448-3.85 3.4441-6.337 3.483-4.757 0-8.033-2.9105-8.033-7.8196v-10.2161h1.755v10.1869c0 4.0069 2.496 6.1607 6.347 6.1218 3.675-.029 6.239-2.7942 6.239-6.4516v-9.8571h1.755v17.7543zm7.137-17.7059.068 3.1531c1.121-2.406 3.637-3.3374 5.908-3.3374 1.336-.0291 2.632.3201 3.822 1.038l-.79 1.4359c-.899-.5258-1.922-.8053-2.965-.8101-1.043-.0049-2.069.265-2.973.7824-.904.5175-1.654 1.2638-2.175 2.1632-.52.8997-.792 1.9201-.788 2.9581v10.3227h-1.765v-17.7059zm10.548 8.8578c0-5.307 4.037-9.1489 9.048-9.1489s9.476 3.0466 8.794 9.964h-16.038c.361 4.1716 3.568 6.5681 7.244 6.5681 2.34 0 5.069-.9314 6.415-2.6875l1.257.9993c-1.735 2.2606-4.825 3.4053-7.672 3.4053-5.011 0-9.048-3.4732-9.048-9.11zm16.253-.7179c-.04-4.3756-2.925-6.8106-7.215-6.8106-3.666 0-6.834 2.4642-7.234 6.8106zm8.557-3.4304h14.77v1.756h-14.76v9.896h15.92v1.8626h-17.831v-25.0987h17.402v1.8338h-15.491zm33.576 11.0407c-.85.8474-1.861 1.5188-2.974 1.9751-1.113.4562-2.305.6885-3.509.6832-5.011 0-9.154-3.4442-9.154-9.0421 0-5.5883 3.997-9.0228 9.154-9.0228 2.426.0038 4.754.9547 6.483 2.6487l-1.15 1.1059c-1.428-1.3765-3.345-2.1367-5.333-2.115-4.036 0-7.419 2.6195-7.419 7.3832 0 4.7636 3.383 7.3928 7.409 7.3928 1.99-.0057 3.896-.7939 5.304-2.1926zm2.233-6.345c0-5.6271 4.036-9.2168 9.037-9.2168 5.012 0 9.048 3.5897 9.048 9.2168 0 5.627-4.036 9.0712-9.048 9.0712-5.001 0-9.037-3.4442-9.037-9.0712zm16.359 0c0-4.5891-3.286-7.5675-7.312-7.5675-4.036 0-7.312 2.9784-7.312 7.5675 0 4.589 3.276 7.354 7.312 7.354 4.026 0 7.312-2.765 7.312-7.354zm6.63-8.8868v3.1529c1.364-2.435 3.851-3.444 6.337-3.4829 4.757 0 8.033 2.9105 8.033 7.8198v10.2159h-1.765v-10.1869c0-4.0069-2.486-6.1606-6.337-6.1219-3.685.0292-6.239 2.7942-6.239 6.4519v9.8569h-1.765v-17.7057zm17.256 8.8868c0-5.6271 4.026-9.2168 9.037-9.2168 5.002 0 9.038 3.5897 9.038 9.2168 0 5.627-4.036 9.0712-9.038 9.0712-5.011 0-9.047-3.4442-9.047-9.0712zm16.349 0c0-4.5891-3.276-7.5675-7.312-7.5675s-7.312 2.9784-7.312 7.5675c0 4.589 3.276 7.354 7.312 7.354s7.312-2.765 7.312-7.354zm31.266 8.8286v-10.6235c0-3.3956-2.302-5.8018-5.684-5.8018-3.392 0-5.733 2.5031-5.733 5.9183v10.4973h-1.764v-10.4973c0-3.3957-2.34-5.8794-5.733-5.8794-3.382 0-5.693 2.4739-5.693 5.8794v10.507h-1.755v-17.7154h1.657l.03 2.9395c1.228-2.3284 3.49-3.2985 5.8-3.2985 2.701 0 5.558 1.2127 6.591 4.3656 1.082-2.9007 3.86-4.3656 6.59-4.3656 4.368 0 7.459 3.0463 7.459 7.4509v10.6138zm20.279-17.7154-10.843 25.0889h-1.87l3.275-7.5967-7.127-17.4922h1.911l4.134 10.4682 2.096 5.1225 2.047-5.1614 4.475-10.4293zm7.068 15.4452c0 3.4053-5.187 3.4053-5.187 0 0-3.3956 5.187-3.3956 5.187 0zm18.328 0c-.88.9168-1.945 1.6396-3.123 2.1225-1.18.483-2.446.715-3.72.6814-5.148 0-9.438-3.0852-9.438-9.3623s4.29-9.3526 9.438-9.3526c2.523 0 4.475.7179 6.413 2.6194l-2.767 2.901c-.978-.8851-2.247-1.3824-3.569-1.3972-2.953 0-5.119 2.1441-5.119 5.2391 0 3.3568 2.311 5.1517 5.042 5.1517 1.403 0 2.817-.3882 3.899-1.4651zm16.038-15.4163h4.211v17.6768h-4.143l-.215-2.5806c-1.014 2.0858-3.783 3.0851-5.762 3.124-5.264.029-9.154-3.2016-9.154-9.4011 0-6.0928 4.075-9.2846 9.262-9.2459 2.379 0 4.64 1.1158 5.654 2.8718zm-10.667 8.8287c0 3.3665 2.341 5.3749 5.266 5.3749 6.912 0 6.912-10.7206 0-10.7206-2.925 0-5.266 1.9696-5.266 5.3361z" fill="#000" fill-rule="evenodd"/><path d="m46.6863 71.7051c-5.9285 4.5022-13.1748 6.9345-20.6234 6.9224-6.7802.0082-13.4078-2.0074-19.03193-5.7876-1.99767-1.3425-3.84826-2.8913-5.5212-4.6205 1.28082 4.1827 3.33832 8.0874 6.0652 11.5105 2.62293 3.2984 5.81873 6.099 9.43473 8.2681 2.0057.3477 4.0377.5214 6.0734.5187 8.7289-.0017 17.1425-3.2588 23.5908-9.1326 6.4484-5.8737 10.4661-13.9405 11.2658-22.6184-2.2877 5.9271-6.1847 11.1004-11.2534 14.9394z" fill="url(#a)"/><path d="m54.1727 37.4979c.6559 1.2632 1.2335 2.5652 1.7294 3.8991 1.4515 3.8954 2.194 8.0187 2.1924 12.1751-.0011 4.5901-.9078 9.1349-2.6682 13.3752-1.7605 4.2403-4.3403 8.0928-7.5921 11.3377-3.2519 3.2449-7.1121 5.8188-11.3601 7.5743-4.2483 1.7555-8.8012 2.6585-13.3989 2.6574-2.0359 0-4.0678-.1764-6.0732-.5268 5.4317 3.2548 11.6494 4.9698 17.9845 4.9608 5.1274.0004 10.1922-1.1237 14.8367-3.2924 4.6444-2.169 8.7551-5.3299 12.0412-9.2593 3.286-3.9293 5.6677-8.5313 6.9763-13.4807 1.3084-4.9494 1.5122-10.1253.5966-15.162-.4729-2.6198-1.2465-5.1767-2.306-7.6195-2.165-4.986-5.4617-9.4011-9.6295-12.8966-4.62-3.8746-9.3132-6.4847-17.8711-7.879 7.8921 4.5961 11.5377 8.3735 14.5338 14.1286z" fill="url(#b)"/><path clip-rule="evenodd" d="m36.5699 29.2706c-5.0097 7.3764-13.8599 15.539-13.7301 15.4823v-.0082c1.0107-.9213 2.1219-1.7262 3.3128-2.3992l.0568-.0486-.0163.0161-.081.0406.1136-.0648c2.6801-1.4936 5.6996-2.2752 8.7689-2.2697 3.6882-.0009 7.2876 1.128 10.3129 3.2336 3.0253 2.1058 5.3308 5.0874 6.6054 8.5425 1.2745 3.455 1.4568 7.2172.5223 10.779-.9346 3.5617-2.9411 6.7514-5.7486 9.139 5.0702-3.8411 8.9672-9.0174 11.2535-14.9473.0967-1.0618.1456-2.1275.1463-3.1938 0-4.2799-.7714-8.3815-2.1843-12.175-.4962-1.3311-1.0737-2.6305-1.7294-3.8908-5.0341-8.2357-7.9813-10.9025-14.5338-14.1368-.5114 1.7589-1.6319 3.8016-3.069 5.9011zm-10.3442 13.0424.0082-.0161-.0082.008z" fill="url(#c)" fill-rule="evenodd"/><path d="m11.3099 70.4568c-.0003 1.6737.1218 3.3453.3654 5.0013 4.5062 2.0935 9.4174 3.1753 14.3876 3.1695 5.9849.0127 11.867-1.5532 17.0508-4.5394-2.5177 1.2685-5.2993 1.9266-8.1194 1.9212-2.4094-.0023-4.794-.4868-7.0126-1.4249s-4.2265-2.3107-5.9045-4.0367c-1.6781-1.726-2.9928-3.7704-3.8659-6.0123s-1.2872-4.6358-1.2178-7.0402c.0842-3.2192 1.0379-6.356 2.7606-9.0786l.0893-.1135c.8407-1.3103 1.8477-2.5065 2.9961-3.5584-2.9149 2.4803-11.5296 14.3878-11.5296 25.712z" fill="url(#d)"/><path d="m35.2383 11.7131c-7.9408 14.0475-29.29483 18.7003-33.88231 36.5982-.905036 3.1522-1.36148821 6.4158-1.35594003 9.6948-.00339264 3.4607.50830503 6.9029 1.51833003 10.2136 2.91027 3.0188 6.35376 5.4757 10.15742 7.2466-.2436-1.6561-.3658-3.3277-.3654-5.0014 0-11.3239 8.6148-23.2317 11.5296-25.712 1.364-1.2646 8.7203-8.1059 13.7299-15.4743 1.4534-2.1399 2.5657-4.1827 3.069-5.9011v-.0081l.1381-.5188c.7915-2.9179 1.201-5.9259 1.218-8.9489v-.227c.0128-4.69743-.9262-9.34893-2.7606-13.6747 0 4.62039-1.1286 8.42206-2.988 11.7131z" fill="url(#e)"/><g fill="#000"><path d="m85.2 84 2.352-16.728h4.464c2.416 0 4.264.6 5.544 1.8 1.296 1.184 1.944 2.864 1.944 5.04 0 1.408-.2 2.712-.6 3.912-.384 1.2-.984 2.248-1.8 3.144s-1.832 1.592-3.048 2.088-2.656.744-4.32.744zm1.8-1.44h2.712c1.536 0 2.832-.24 3.888-.72s1.896-1.12 2.52-1.92c.64-.8 1.104-1.704 1.392-2.712s.432-2.048.432-3.12c0-1.216-.24-2.216-.72-3-.464-.8-1.152-1.392-2.064-1.776-.896-.4-1.992-.6-3.288-.6h-2.952z"/><path d="m106.335 84.168c-1.04 0-1.912-.208-2.616-.624-.704-.432-1.232-1.016-1.584-1.752s-.528-1.576-.528-2.52c0-.88.136-1.752.408-2.616s.664-1.648 1.176-2.352c.528-.704 1.168-1.264 1.92-1.68s1.608-.624 2.568-.624c1.072 0 1.936.216 2.592.648s1.128.992 1.416 1.68c.304.688.456 1.432.456 2.232 0 .304-.024.648-.072 1.032-.048.368-.104.68-.168.936h-8.76c-.016.16-.032.304-.048.432v.408c0 1.088.288 1.928.864 2.52s1.376.888 2.4.888c.752 0 1.416-.112 1.992-.336.592-.24 1.176-.64 1.752-1.2l1.008 1.008c-.768.672-1.52 1.16-2.256 1.464s-1.576.456-2.52.456zm4.32-6.48c.048-.256.08-.488.096-.696s.024-.44.024-.696c0-.496-.104-.968-.312-1.416-.192-.464-.512-.848-.96-1.152s-1.048-.456-1.8-.456-1.432.184-2.04.552-1.12.864-1.536 1.488c-.4.608-.68 1.296-.84 2.064h7.848z"/><path d="m114.433 84 1.488-10.632h-2.088l.192-1.2h2.064l.144-1.008c.128-.912.408-1.664.84-2.256.448-.592.992-1.04 1.632-1.344.656-.304 1.376-.456 2.16-.456.752 0 1.4.104 1.944.312.56.192 1.064.464 1.512.816l-.816 1.008c-.336-.304-.72-.528-1.152-.672s-.904-.216-1.416-.216c-.88 0-1.6.232-2.16.696-.544.464-.896 1.232-1.056 2.304l-.096.816h5.208l-.192 1.2h-5.208l-1.488 10.632zm6.192 0 1.656-11.832h1.536l-1.68 11.832z"/><path d="m125.672 84 1.68-11.832h1.512l-.384 2.76-.384-.048c.304-.656.68-1.192 1.128-1.608.448-.432.952-.752 1.512-.96s1.16-.312 1.8-.312c1.12 0 1.992.296 2.616.888s.936 1.488.936 2.688c0 .16-.008.336-.024.528 0 .176-.016.36-.048.552l-1.032 7.344h-1.512l.96-6.888c.032-.192.056-.376.072-.552.016-.192.024-.384.024-.576 0-.912-.208-1.584-.624-2.016-.4-.432-.992-.648-1.776-.648-1.072 0-1.96.376-2.664 1.128s-1.176 1.944-1.416 3.576l-.84 5.976z"/><path d="m138.563 84 1.68-11.832h1.512l-1.68 11.832zm1.848-14.136.36-2.592h1.824l-.36 2.592z"/><path d="m143.766 84 1.68-11.832h1.512l-.384 2.76-.384-.048c.304-.656.68-1.192 1.128-1.608.448-.432.952-.752 1.512-.96s1.16-.312 1.8-.312c1.12 0 1.992.296 2.616.888s.936 1.488.936 2.688c0 .16-.008.336-.024.528 0 .176-.016.36-.048.552l-1.032 7.344h-1.512l.96-6.888c.032-.192.056-.376.072-.552.016-.192.024-.384.024-.576 0-.912-.208-1.584-.624-2.016-.4-.432-.992-.648-1.776-.648-1.072 0-1.96.376-2.664 1.128s-1.176 1.944-1.416 3.576l-.84 5.976z"/><path d="m160.547 89.064c-.752 0-1.424-.072-2.016-.216-.576-.144-1.072-.36-1.488-.648-.4-.272-.704-.624-.912-1.056-.208-.416-.312-.896-.312-1.44 0-.192.008-.384.024-.576.032-.192.064-.392.096-.6l2.472-1.776.72.624-1.896 1.656v.24c-.048.656.064 1.176.336 1.56.288.384.688.656 1.2.816.528.16 1.128.24 1.8.24 1.392 0 2.464-.248 3.216-.744.752-.48 1.128-1.16 1.128-2.04 0-.272-.064-.528-.192-.768-.112-.224-.32-.4-.624-.528-.288-.144-.696-.216-1.224-.216h-3.36c-.352 0-.704-.048-1.056-.144-.336-.112-.64-.264-.912-.456s-.48-.44-.624-.744-.2-.648-.168-1.032c.048-.624.232-1.16.552-1.608.336-.448.84-.912 1.512-1.392l.672 1.056c-.368.24-.68.52-.936.84s-.384.68-.384 1.08c0 .256.096.472.288.648.192.16.464.288.816.384.368.08.8.12 1.296.12h2.616c1.168 0 1.992.24 2.472.72.496.48.744 1.096.744 1.848 0 .88-.24 1.624-.72 2.232-.464.624-1.128 1.096-1.992 1.416-.864.336-1.912.504-3.144.504zm1.176-8.976c-1.232 0-2.216-.32-2.952-.96-.72-.64-1.08-1.48-1.08-2.52 0-.896.232-1.688.696-2.376.464-.704 1.072-1.248 1.824-1.632.768-.4 1.584-.6 2.448-.6.768 0 1.44.152 2.016.456.592.288 1.056.704 1.392 1.248.352.544.528 1.184.528 1.92 0 .88-.216 1.656-.648 2.328s-1.016 1.2-1.752 1.584c-.736.368-1.56.552-2.472.552zm-.024-1.2c.656 0 1.24-.144 1.752-.432.512-.304.912-.712 1.2-1.224s.432-1.08.432-1.704c0-.688-.216-1.232-.648-1.632-.432-.416-1.024-.624-1.776-.624-.64 0-1.224.152-1.752.456-.512.288-.92.688-1.224 1.2-.304.496-.456 1.064-.456 1.704 0 .656.216 1.2.648 1.632.432.416 1.04.624 1.824.624zm4.392-4.68-.984-.744 2.592-2.016.672.96z"/><path d="m182.699 84.24c-1.008 0-1.92-.16-2.736-.48-.8-.32-1.488-.784-2.064-1.392-.576-.624-1.016-1.368-1.32-2.232s-.456-1.832-.456-2.904c0-1.312.2-2.576.6-3.792s.984-2.304 1.752-3.264c.768-.976 1.688-1.744 2.76-2.304 1.088-.56 2.328-.84 3.72-.84 1.68 0 3.056.416 4.128 1.248 1.088.832 1.8 1.952 2.136 3.36l-1.512.48c-.272-1.136-.816-2.016-1.632-2.64s-1.872-.936-3.168-.936c-1.152 0-2.176.24-3.072.72s-1.656 1.128-2.28 1.944c-.608.816-1.072 1.744-1.392 2.784-.32 1.024-.48 2.096-.48 3.216 0 1.712.44 3.064 1.32 4.056.896.976 2.144 1.464 3.744 1.464 1.328 0 2.496-.32 3.504-.96 1.024-.656 1.84-1.552 2.448-2.688l1.392.624c-.72 1.424-1.728 2.536-3.024 3.336s-2.752 1.2-4.368 1.2z"/><path d="m197.061 84.168c-.944 0-1.768-.216-2.472-.648-.704-.448-1.248-1.056-1.632-1.824s-.576-1.64-.576-2.616c0-.928.152-1.816.456-2.664s.736-1.6 1.296-2.256c.56-.672 1.216-1.2 1.968-1.584.768-.384 1.6-.576 2.496-.576.784 0 1.472.152 2.064.456.592.288 1.072.696 1.44 1.224s.6 1.136.696 1.824l-.48.36.528-3.696h1.488l-1.656 11.832h-1.512l.528-3.72.432.384c-.32.736-.728 1.368-1.224 1.896-.496.512-1.072.912-1.728 1.2-.64.272-1.344.408-2.112.408zm.288-1.392c.72 0 1.376-.16 1.968-.48.608-.32 1.12-.744 1.536-1.272.432-.544.76-1.152.984-1.824.24-.672.36-1.36.36-2.064 0-.752-.144-1.408-.432-1.968-.272-.56-.664-.992-1.176-1.296-.496-.32-1.088-.48-1.776-.48-.736 0-1.408.16-2.016.48s-1.128.744-1.56 1.272-.768 1.128-1.008 1.8c-.224.672-.336 1.36-.336 2.064 0 .736.136 1.392.408 1.968.288.56.688 1 1.2 1.32.528.32 1.144.48 1.848.48z"/><path d="m206.391 84 1.68-11.832h1.512l-.384 2.76-.384-.048c.304-.656.68-1.192 1.128-1.608.448-.432.952-.752 1.512-.96s1.16-.312 1.8-.312c1.12 0 1.992.296 2.616.888s.936 1.488.936 2.688c0 .16-.008.336-.024.528 0 .176-.016.36-.048.552l-1.032 7.344h-1.512l.96-6.888c.032-.192.056-.376.072-.552.016-.192.024-.384.024-.576 0-.912-.208-1.584-.624-2.016-.4-.432-.992-.648-1.776-.648-1.072 0-1.96.376-2.664 1.128s-1.176 1.944-1.416 3.576l-.84 5.976z"/><path d="m224.084 84.168c-.944 0-1.768-.216-2.472-.648-.704-.448-1.248-1.056-1.632-1.824s-.576-1.64-.576-2.616c0-.928.152-1.816.456-2.664s.736-1.6 1.296-2.256c.56-.672 1.216-1.2 1.968-1.584.768-.384 1.6-.576 2.496-.576.784 0 1.472.152 2.064.456.592.288 1.072.696 1.44 1.224s.6 1.136.696 1.824l-.48.36.528-3.696h1.488l-1.656 11.832h-1.512l.528-3.72.432.384c-.32.736-.728 1.368-1.224 1.896-.496.512-1.072.912-1.728 1.2-.64.272-1.344.408-2.112.408zm.288-1.392c.72 0 1.376-.16 1.968-.48.608-.32 1.12-.744 1.536-1.272.432-.544.76-1.152.984-1.824.24-.672.36-1.36.36-2.064 0-.752-.144-1.408-.432-1.968-.272-.56-.664-.992-1.176-1.296-.496-.32-1.088-.48-1.776-.48-.736 0-1.408.16-2.016.48s-1.128.744-1.56 1.272-.768 1.128-1.008 1.8c-.224.672-.336 1.36-.336 2.064 0 .736.136 1.392.408 1.968.288.56.688 1 1.2 1.32.528.32 1.144.48 1.848.48z"/><path d="m238.217 84.168c-.944 0-1.768-.216-2.472-.648-.704-.448-1.248-1.056-1.632-1.824s-.576-1.64-.576-2.616c0-.928.152-1.816.456-2.664s.736-1.6 1.296-2.256c.56-.672 1.216-1.2 1.968-1.584.768-.384 1.6-.576 2.496-.576.784 0 1.472.152 2.064.456.592.288 1.072.696 1.44 1.224s.6 1.136.696 1.824l-.48.36 1.2-8.592h1.512l-2.352 16.728h-1.512l.528-3.72.432.384c-.32.736-.728 1.368-1.224 1.896-.496.512-1.072.912-1.728 1.2-.64.272-1.344.408-2.112.408zm.288-1.392c.72 0 1.376-.16 1.968-.48.608-.32 1.12-.744 1.536-1.272.432-.544.76-1.152.984-1.824.24-.672.36-1.36.36-2.064 0-.752-.144-1.408-.432-1.968-.272-.56-.664-.992-1.176-1.296-.496-.32-1.088-.48-1.776-.48-.736 0-1.408.16-2.016.48s-1.128.744-1.56 1.272-.768 1.128-1.008 1.8c-.224.672-.336 1.36-.336 2.064 0 .736.136 1.392.408 1.968.288.56.688 1 1.2 1.32.528.32 1.144.48 1.848.48z"/><path d="m252.467 84.168c-.944 0-1.768-.216-2.472-.648-.704-.448-1.248-1.056-1.632-1.824s-.576-1.64-.576-2.616c0-.928.152-1.816.456-2.664s.736-1.6 1.296-2.256c.56-.672 1.216-1.2 1.968-1.584.768-.384 1.6-.576 2.496-.576.784 0 1.472.152 2.064.456.592.288 1.072.696 1.44 1.224s.6 1.136.696 1.824l-.48.36.528-3.696h1.488l-1.656 11.832h-1.512l.528-3.72.432.384c-.32.736-.728 1.368-1.224 1.896-.496.512-1.072.912-1.728 1.2-.64.272-1.344.408-2.112.408zm.288-1.392c.72 0 1.376-.16 1.968-.48.608-.32 1.12-.744 1.536-1.272.432-.544.76-1.152.984-1.824.24-.672.36-1.36.36-2.064 0-.752-.144-1.408-.432-1.968-.272-.56-.664-.992-1.176-1.296-.496-.32-1.088-.48-1.776-.48-.736 0-1.408.16-2.016.48s-1.128.744-1.56 1.272-.768 1.128-1.008 1.8c-.224.672-.336 1.36-.336 2.064 0 .736.136 1.392.408 1.968.288.56.688 1 1.2 1.32.528.32 1.144.48 1.848.48z"/><path d="m262.253 74.088 3.456-6.816h1.776l-4.152 6.816z"/><path d="m271.805 84.168c-.8 0-1.504-.12-2.112-.36s-1.112-.568-1.512-.984-.696-.872-.888-1.368l1.152-.792c.208.672.6 1.216 1.176 1.632.592.4 1.328.6 2.208.6.592 0 1.128-.096 1.608-.288.48-.208.864-.496 1.152-.864.288-.384.432-.824.432-1.32 0-.416-.12-.752-.36-1.008s-.576-.464-1.008-.624-.936-.312-1.512-.456c-.432-.112-.848-.232-1.248-.36-.4-.144-.76-.32-1.08-.528s-.576-.464-.768-.768c-.176-.32-.264-.704-.264-1.152 0-.688.184-1.296.552-1.824s.88-.944 1.536-1.248 1.408-.456 2.256-.456c.88 0 1.656.2 2.328.6.688.384 1.184.96 1.488 1.728l-1.032.624c-.256-.608-.632-1.048-1.128-1.32-.48-.272-1.056-.408-1.728-.408-.784 0-1.456.192-2.016.576s-.84.896-.84 1.536c0 .48.208.84.624 1.08.416.224 1.024.432 1.824.624.608.144 1.208.328 1.8.552.608.208 1.104.512 1.488.912.4.384.6.944.6 1.68 0 .8-.208 1.504-.624 2.112-.4.592-.952 1.056-1.656 1.392-.704.32-1.52.48-2.448.48z"/><path d="m285.567 84 2.352-16.728h10.848l-.216 1.416h-9.264l-.84 6.096h8.04l-.192 1.416h-8.04l-1.128 7.8z"/><path d="m302.226 84.168c-1.12 0-1.992-.296-2.616-.888s-.936-1.488-.936-2.688c0-.16.008-.328.024-.504.016-.192.032-.384.048-.576l1.032-7.344h1.512l-.984 6.888c-.016.192-.032.384-.048.576-.016.176-.024.36-.024.552 0 .928.2 1.608.6 2.04.416.416 1.016.624 1.8.624.72 0 1.352-.168 1.896-.504.56-.336 1.024-.848 1.392-1.536.384-.704.648-1.592.792-2.664l.84-5.976h1.536l-1.68 11.832h-1.512l.384-2.76.384.048c-.448.992-1.064 1.72-1.848 2.184s-1.648.696-2.592.696z"/><path d="m314.69 84.168c-.496 0-.928-.08-1.296-.24-.352-.176-.632-.432-.84-.768-.192-.336-.288-.768-.288-1.296 0-.112 0-.224 0-.336.016-.112.032-.224.048-.336l1.752-12.408 1.656-.888-1.824 12.984c-.016.112-.032.224-.048.336v.336c0 .448.088.784.264 1.008.192.224.512.336.96.336.192 0 .408-.016.648-.048s.488-.096.744-.192l-.168 1.272c-.288.08-.568.136-.84.168-.272.048-.528.072-.768.072zm-3.888-10.8.192-1.2h6.96l-.168 1.2z"/><path d="m322.711 84.168c-1.12 0-1.992-.296-2.616-.888s-.936-1.488-.936-2.688c0-.16.008-.328.024-.504.016-.192.032-.384.048-.576l1.032-7.344h1.512l-.984 6.888c-.016.192-.032.384-.048.576-.016.176-.024.36-.024.552 0 .928.2 1.608.6 2.04.416.416 1.016.624 1.8.624.72 0 1.352-.168 1.896-.504.56-.336 1.024-.848 1.392-1.536.384-.704.648-1.592.792-2.664l.84-5.976h1.536l-1.68 11.832h-1.512l.384-2.76.384.048c-.448.992-1.064 1.72-1.848 2.184s-1.648.696-2.592.696z"/><path d="m331.617 84 1.68-11.832h1.512l-.456 3.144-.432-.048c.24-.72.616-1.32 1.128-1.8.512-.496 1.072-.864 1.68-1.104s1.176-.36 1.704-.36c.336 0 .656.04.96.12.304.064.6.184.888.36l-.864 1.32c-.176-.096-.392-.168-.648-.216-.24-.064-.48-.096-.72-.096-.832 0-1.536.216-2.112.648-.56.416-1 .96-1.32 1.632-.304.672-.52 1.392-.648 2.16l-.84 6.072z"/><path d="m345.234 84.168c-1.04 0-1.912-.208-2.616-.624-.704-.432-1.232-1.016-1.584-1.752s-.528-1.576-.528-2.52c0-.88.136-1.752.408-2.616s.664-1.648 1.176-2.352c.528-.704 1.168-1.264 1.92-1.68s1.608-.624 2.568-.624c1.072 0 1.936.216 2.592.648s1.128.992 1.416 1.68c.304.688.456 1.432.456 2.232 0 .304-.024.648-.072 1.032-.048.368-.104.68-.168.936h-8.76c-.016.16-.032.304-.048.432v.408c0 1.088.288 1.928.864 2.52s1.376.888 2.4.888c.752 0 1.416-.112 1.992-.336.592-.24 1.176-.64 1.752-1.2l1.008 1.008c-.768.672-1.52 1.16-2.256 1.464s-1.576.456-2.52.456zm4.32-6.48c.048-.256.08-.488.096-.696s.024-.44.024-.696c0-.496-.104-.968-.312-1.416-.192-.464-.512-.848-.96-1.152s-1.048-.456-1.8-.456-1.432.184-2.04.552-1.12.864-1.536 1.488c-.4.608-.68 1.296-.84 2.064h7.848z"/><path d="m359.677 84 2.352-16.728h10.944l-.192 1.416h-9.384l-.84 6.096h8.376l-.192 1.416h-8.376l-.912 6.384h9.36l-.192 1.416z"/><path d="m378.137 84.168c-1.008 0-1.856-.216-2.544-.648-.672-.448-1.184-1.048-1.536-1.8-.352-.768-.528-1.632-.528-2.592 0-.896.136-1.768.408-2.616.288-.848.696-1.608 1.224-2.28.544-.688 1.192-1.232 1.944-1.632.768-.4 1.632-.6 2.592-.6 1.104 0 2.024.28 2.76.84.752.544 1.248 1.352 1.488 2.424l-1.392.432c-.144-.736-.456-1.312-.936-1.728-.48-.432-1.128-.648-1.944-.648-.752 0-1.416.176-1.992.528-.576.336-1.064.792-1.464 1.368s-.704 1.208-.912 1.896c-.192.672-.288 1.352-.288 2.04 0 .672.104 1.288.312 1.848.224.56.568 1.008 1.032 1.344s1.064.504 1.8.504c.848 0 1.584-.224 2.208-.672.64-.448 1.144-1.048 1.512-1.8l1.296.6c-.544 1.072-1.256 1.872-2.136 2.4s-1.848.792-2.904.792z"/><path d="m390.637 84.168c-.992 0-1.864-.216-2.616-.648-.736-.432-1.312-1.032-1.728-1.8-.4-.768-.6-1.656-.6-2.664 0-.928.152-1.808.456-2.64.32-.848.768-1.6 1.344-2.256.576-.672 1.256-1.2 2.04-1.584.8-.384 1.688-.576 2.664-.576.992 0 1.856.216 2.592.648.736.416 1.304 1.008 1.704 1.776.4.752.6 1.632.6 2.64 0 .944-.16 1.848-.48 2.712-.304.848-.744 1.6-1.32 2.256s-1.256 1.176-2.04 1.56-1.656.576-2.616.576zm.024-1.344c.784 0 1.472-.16 2.064-.48.608-.336 1.128-.776 1.56-1.32s.76-1.16.984-1.848.336-1.4.336-2.136c0-1.136-.304-2.04-.912-2.712s-1.456-1.008-2.544-1.008c-.784 0-1.488.168-2.112.504-.608.336-1.128.784-1.56 1.344-.432.544-.76 1.16-.984 1.848-.208.672-.312 1.368-.312 2.088 0 1.136.304 2.04.912 2.712.624.672 1.48 1.008 2.568 1.008z"/><path d="m399.375 84 1.68-11.832h1.512l-.384 2.76-.384-.048c.304-.656.68-1.192 1.128-1.608.448-.432.952-.752 1.512-.96s1.16-.312 1.8-.312c1.12 0 1.992.296 2.616.888s.936 1.488.936 2.688c0 .16-.008.336-.024.528 0 .176-.016.36-.048.552l-1.032 7.344h-1.512l.96-6.888c.032-.192.056-.376.072-.552.016-.192.024-.384.024-.576 0-.912-.208-1.584-.624-2.016-.4-.432-.992-.648-1.776-.648-1.072 0-1.96.376-2.664 1.128s-1.176 1.944-1.416 3.576l-.84 5.976z"/><path d="m417.309 84.168c-.992 0-1.864-.216-2.616-.648-.736-.432-1.312-1.032-1.728-1.8-.4-.768-.6-1.656-.6-2.664 0-.928.152-1.808.456-2.64.32-.848.768-1.6 1.344-2.256.576-.672 1.256-1.2 2.04-1.584.8-.384 1.688-.576 2.664-.576.992 0 1.856.216 2.592.648.736.416 1.304 1.008 1.704 1.776.4.752.6 1.632.6 2.64 0 .944-.16 1.848-.48 2.712-.304.848-.744 1.6-1.32 2.256s-1.256 1.176-2.04 1.56-1.656.576-2.616.576zm.024-1.344c.784 0 1.472-.16 2.064-.48.608-.336 1.128-.776 1.56-1.32s.76-1.16.984-1.848.336-1.4.336-2.136c0-1.136-.304-2.04-.912-2.712s-1.456-1.008-2.544-1.008c-.784 0-1.488.168-2.112.504-.608.336-1.128.784-1.56 1.344-.432.544-.76 1.16-.984 1.848-.208.672-.312 1.368-.312 2.088 0 1.136.304 2.04.912 2.712.624.672 1.48 1.008 2.568 1.008z"/><path d="m426.047 84 1.68-11.832h1.512l-.408 3.048-.312-.168c.288-.752.648-1.344 1.08-1.776.448-.448.936-.768 1.464-.96.528-.208 1.064-.312 1.608-.312.704 0 1.304.144 1.8.432.512.272.904.68 1.176 1.224s.408 1.232.408 2.064l-.816-.144c.32-.816.704-1.488 1.152-2.016s.96-.92 1.536-1.176 1.208-.384 1.896-.384c.832 0 1.496.16 1.992.48s.856.768 1.08 1.344c.224.56.336 1.2.336 1.92 0 .224-.008.432-.024.624 0 .192-.016.392-.048.6l-1.008 7.032h-1.512l.96-6.744c.032-.208.056-.408.072-.6.016-.208.024-.432.024-.672 0-.848-.168-1.504-.504-1.968s-.912-.696-1.728-.696c-.944 0-1.744.352-2.4 1.056s-1.08 1.744-1.272 3.12l-.912 6.504h-1.536l.984-6.96c.032-.208.056-.4.072-.576.016-.192.024-.376.024-.552 0-.896-.192-1.552-.576-1.968-.368-.416-.912-.624-1.632-.624-.96 0-1.776.36-2.448 1.08-.656.72-1.08 1.752-1.272 3.096l-.912 6.504z"/><path d="m446.102 88.872 2.928-5.256-3.072-11.448h1.632l2.424 9.912 5.256-9.912h1.656l-9.144 16.704z"/></g></svg>